# xmcd
#
# Track frame offsets: 
#        150
#        14255
#        34274
#        52364
#        74599
#        82145
#        100256
#        120899
#        135994
#        168680
#
# Disc length: 2801 seconds
#
# Revision: 0
# Processed by: cddbd v1.5.2PL0 Copyright (c) Steve Scherf et al.
# Submitted via: ExactAudioCopy v0.99pb4
#
DISCID=8b0aef0a
DTITLE=Amit Erez - Last Night When I Tried to Sleep I Felt the Ocean w
DTITLE=ith my Fingertips
DYEAR=2009
DGENRE=Folk
TTITLE0=Pretty Things
TTITLE1=Animal Heart
TTITLE2=Whales Dance for me
TTITLE3=The Water Received
TTITLE4=Holy Things
TTITLE5=Coming Down
TTITLE6=Secret Cards
TTITLE7=Love Again
TTITLE8=Last Night When I Tried to Sleep I Felt the Ocean with my Fing
TTITLE8=ertips
TTITLE9=Paper Cuts
EXTD=
EXTT0=
EXTT1=
EXTT2=
EXTT3=
EXTT4=
EXTT5=
EXTT6=
EXTT7=
EXTT8=
EXTT9=
PLAYORDER=
